<mxfile host="app.diagrams.net" modified="2023-12-02T14:18:46.206Z" agent="Mozilla/5.0 (Windows NT 10.0; Win64; x64) AppleWebKit/537.36 (KHTML, like Gecko) Chrome/119.0.0.0 Safari/537.36" etag="LiqLoulCLV2iux2DR0jE" version="22.1.5" type="github">
  <diagram name="Page-1" id="JxQtIGuL1HX6G6ALxYl1">
    <mxGraphModel dx="488" dy="314" grid="1" gridSize="10" guides="1" tooltips="1" connect="1" arrows="1" fold="1" page="1" pageScale="1" pageWidth="827" pageHeight="1169" math="0" shadow="0">
      <root>
        <mxCell id="0" />
        <mxCell id="1" parent="0" />
        <mxCell id="LLf0_JildX3zrnSfgbZ6-6" style="edgeStyle=orthogonalEdgeStyle;rounded=0;orthogonalLoop=1;jettySize=auto;html=1;exitX=1;exitY=0.5;exitDx=0;exitDy=0;entryX=0;entryY=0.5;entryDx=0;entryDy=0;" edge="1" parent="1" source="LLf0_JildX3zrnSfgbZ6-2" target="LLf0_JildX3zrnSfgbZ6-3">
          <mxGeometry relative="1" as="geometry" />
        </mxCell>
        <mxCell id="LLf0_JildX3zrnSfgbZ6-2" value="helm chart" style="rounded=1;whiteSpace=wrap;html=1;" vertex="1" parent="1">
          <mxGeometry x="180" y="490" width="70" height="30" as="geometry" />
        </mxCell>
        <mxCell id="LLf0_JildX3zrnSfgbZ6-7" style="edgeStyle=orthogonalEdgeStyle;rounded=0;orthogonalLoop=1;jettySize=auto;html=1;exitX=1;exitY=0.5;exitDx=0;exitDy=0;" edge="1" parent="1" source="LLf0_JildX3zrnSfgbZ6-3" target="LLf0_JildX3zrnSfgbZ6-4">
          <mxGeometry relative="1" as="geometry" />
        </mxCell>
        <mxCell id="LLf0_JildX3zrnSfgbZ6-3" value="kube-config" style="rounded=1;whiteSpace=wrap;html=1;" vertex="1" parent="1">
          <mxGeometry x="270" y="490" width="70" height="30" as="geometry" />
        </mxCell>
        <mxCell id="LLf0_JildX3zrnSfgbZ6-8" style="edgeStyle=orthogonalEdgeStyle;rounded=0;orthogonalLoop=1;jettySize=auto;html=1;exitX=1;exitY=0.5;exitDx=0;exitDy=0;" edge="1" parent="1" source="LLf0_JildX3zrnSfgbZ6-4" target="LLf0_JildX3zrnSfgbZ6-5">
          <mxGeometry relative="1" as="geometry" />
        </mxCell>
        <mxCell id="LLf0_JildX3zrnSfgbZ6-4" value="kube-apiserver" style="rounded=1;whiteSpace=wrap;html=1;" vertex="1" parent="1">
          <mxGeometry x="360" y="490" width="90" height="30" as="geometry" />
        </mxCell>
        <mxCell id="LLf0_JildX3zrnSfgbZ6-5" value="&amp;nbsp; &amp;nbsp; deployment&lt;br&gt;&amp;nbsp; &amp;nbsp; service&lt;br&gt;&amp;nbsp; &amp;nbsp; ingress&lt;br&gt;&amp;nbsp; &amp;nbsp; &amp;nbsp; &amp;nbsp; &amp;nbsp; &amp;nbsp; &amp;nbsp; &amp;nbsp;..." style="rounded=1;whiteSpace=wrap;html=1;align=left;" vertex="1" parent="1">
          <mxGeometry x="480" y="475" width="120" height="60" as="geometry" />
        </mxCell>
      </root>
    </mxGraphModel>
  </diagram>
</mxfile>
